<svg xmlns="http://www.w3.org/2000/svg" viewBox="0 0 85 17"  aria-labelledby="meta-company-logo"><title id="meta-company-logo">Meta company logo</title><path d="M31 .5h3.2l5.4 9.9L45 .5h3.2v16.2h-2.6V4.3L40.8 13h-2.5l-4.7-8.6v12.4H31V.5ZM56.6 17c-1.2 0-2.3-.3-3.2-.8-1-.5-1.6-1.3-2.2-2.2-.5-1-.7-2-.7-3.3a7 7 0 0 1 .7-3.3 5.6 5.6 0 0 1 5.2-3c1.1 0 2.1.2 3 .8.8.5 1.4 1.3 1.8 2.3.5 1 .7 2 .7 3.4v.7h-8.8a3.5 3.5 0 0 0 3.6 3.2c.7 0 1.4-.1 2-.3l1.6-1.1 1.3 1.7a7.2 7.2 0 0 1-5 1.9Zm1.9-9.6c-.6-.6-1.3-.8-2.2-.8a3 3 0 0 0-2.1.8A4 4 0 0 0 53 9.7h6.3c0-1-.4-1.7-1-2.3ZM65 6.8h-2.3V4.7H65V1h2.5v3.6h3.6v2.1h-3.6v5.4c0 1 .1 1.6.5 2 .3.3.8.5 1.5.5a7.5 7.5 0 0 0 1.6-.1v2a7.1 7.1 0 0 1-2 .4c-2.8 0-4.1-1.5-4.1-4.5V6.8ZM84.4 16.7h-2.5V15c-.5.7-1 1.1-1.7 1.5a5 5 0 0 1-2.3.5c-1 0-2-.3-2.8-.8a5.6 5.6 0 0 1-2-2.3c-.4-1-.7-2-.7-3.2 0-1.3.3-2.3.8-3.3.4-1 1-1.7 2-2.2.8-.6 1.7-.8 2.8-.8a5 5 0 0 1 2.3.5c.6.3 1.2.7 1.6 1.3V4.7h2.5v12Zm-2.6-7.8a3.4 3.4 0 0 0-3.3-2.2c-1 0-1.9.3-2.5 1-.7.8-1 1.7-1 3 0 1.2.3 2.2 1 3 .6.6 1.4 1 2.4 1 .8 0 1.5-.2 2.1-.6.6-.4 1-1 1.3-1.6V8.9ZM18.4 0c-2.1 0-3.8 1.6-5.3 3.6v-.1l-.1-.1-.1-.2h-.1l-.1-.2-.1-.1-.1-.1-.1-.1-.1-.1a6.4 6.4 0 0 0-.1-.1v-.1H12l-.2-.2-.1-.2h-.1l-.1-.1-.1-.1-.1-.1-.1-.1-.2-.1v-.1H11v-.1l-.2-.1h-.1l-.1-.1V1h-.2V.8h-.2V.7H10L10 .6h-.1V.5h-.1L9.6.5h-.1L9.3.3h-.2L9 .2H9L8.7.1H8.4L8.4 0h-.8V0h-.2C3.2 0 0 5.4 0 11.1 0 14.7 1.7 17 4.6 17c2.1 0 3.6-1 6.3-5.7L12.8 8l.1.2v.1h.1l.1.2.1.2.1.2.1.1.1.2.1.2.2.3 1.1 1.8c2.4 4.1 3.8 5.5 6.3 5.5 2.8 0 4.4-2.3 4.4-6 0-6-3.3-11-7.2-11ZM8.9 10c-2.2 3.5-3 4.2-4.2 4.2-1.2 0-2-1-2-3 0-4.2 2.1-8.4 4.6-8.4H8.2V3H8.5V3h.2l.1.1h.1v.1H9l.2.1v.1h.1l.1.1.1.1h.1v.1h.1l.1.1V4h.1a5.6 5.6 0 0 1 .2.3h.1v.1h.1l.1.2.1.1.1.1v.1h.1l.1.2h.1l.1.3.2.2.1.2h.1l.1.2V6L9 10Zm12.3 4.2c-1.2 0-1.8-.8-4.1-4.6l-1.5-2.5-1.2-1.8c1.3-2 2.5-3.1 3.8-3.1 2.7 0 5 4 5 9 0 2-.7 3-2 3Z" fill="currentColor"></path></svg>
